<?xml version="1.0" encoding="UTF-8" standalone="no"?>
<!DOCTYPE svg PUBLIC "-//W3C//DTD SVG 1.1//EN" "http://www.w3.org/Graphics/SVG/1.1/DTD/svg11.dtd">
<!-- Generated by graphviz version 2.40.1 (20161225.0304)
 -->
<!-- Title: %0 Pages: 1 -->
<svg xmlns="http://www.w3.org/2000/svg" xmlns:xlink="http://www.w3.org/1999/xlink" width="128pt" height="260pt" viewBox="0.00 0.00 128.19 260.00">
  <g id="graph0" class="graph" transform="scale(1 1) rotate(0) translate(4 256)">
    <title>%0</title>
    <polygon fill="#ffffff" stroke="transparent" points="-4,4 -4,-256 124.188,-256 124.188,4 -4,4"/>
    <!-- rec1 -->
    <g id="node1" class="node">
      <title>rec1</title>
      <polygon fill="none" stroke="#000000" points="114.1266,-252 6.0614,-252 6.0614,-216 114.1266,-216 114.1266,-252"/>
      <text text-anchor="middle" x="60.094" y="-229.8" font-family="Times,serif" font-size="14.00" fill="#000000">Step 1. Wake up</text>
    </g>
    <!-- rec2 -->
    <g id="node2" class="node">
      <title>rec2</title>
      <polygon fill="none" stroke="#000000" points="120.2821,-180 -.0941,-180 -.0941,-144 120.2821,-144 120.2821,-180"/>
      <text text-anchor="middle" x="60.094" y="-157.8" font-family="Times,serif" font-size="14.00" fill="#000000">Step 2. Write code</text>
    </g>
    <!-- rec1&#45;&gt;rec2 -->
    <g id="edge1" class="edge">
      <title>rec1-&gt;rec2</title>
      <path fill="none" stroke="#000000" d="M60.094,-215.8314C60.094,-208.131 60.094,-198.9743 60.094,-190.4166"/>
      <polygon fill="#000000" stroke="#000000" points="63.5941,-190.4132 60.094,-180.4133 56.5941,-190.4133 63.5941,-190.4132"/>
    </g>
    <!-- rec3 -->
    <g id="node3" class="node">
      <title>rec3</title>
      <polygon fill="none" stroke="#000000" points="98.6256,-108 21.5624,-108 21.5624,-72 98.6256,-72 98.6256,-108"/>
      <text text-anchor="middle" x="60.094" y="-85.8" font-family="Times,serif" font-size="14.00" fill="#000000">Step 3. ???</text>
    </g>
    <!-- rec2&#45;&gt;rec3 -->
    <g id="edge2" class="edge">
      <title>rec2-&gt;rec3</title>
      <path fill="none" stroke="#000000" d="M60.094,-143.8314C60.094,-136.131 60.094,-126.9743 60.094,-118.4166"/>
      <polygon fill="#000000" stroke="#000000" points="63.5941,-118.4132 60.094,-108.4133 56.5941,-118.4133 63.5941,-118.4132"/>
    </g>
    <!-- rec4 -->
    <g id="node4" class="node">
      <title>rec4</title>
      <polygon fill="none" stroke="#000000" points="113.2041,-36 6.9839,-36 6.9839,0 113.2041,0 113.2041,-36"/>
      <text text-anchor="middle" x="60.094" y="-13.8" font-family="Times,serif" font-size="14.00" fill="#000000">Step 4. PROFIT</text>
    </g>
    <!-- rec3&#45;&gt;rec4 -->
    <g id="edge3" class="edge">
      <title>rec3-&gt;rec4</title>
      <path fill="none" stroke="#000000" d="M60.094,-71.8314C60.094,-64.131 60.094,-54.9743 60.094,-46.4166"/>
      <polygon fill="#000000" stroke="#000000" points="63.5941,-46.4132 60.094,-36.4133 56.5941,-46.4133 63.5941,-46.4132"/>
    </g>
  </g>
</svg>
